<?xml version="1.0" standalone="no"?>
<!DOCTYPE svg PUBLIC "-//W3C//DTD SVG 20010904//EN"
 "http://www.w3.org/TR/2001/REC-SVG-20010904/DTD/svg10.dtd">
<svg version="1.0" xmlns="http://www.w3.org/2000/svg"
 width="1734.000000pt" height="1829.000000pt" viewBox="0 0 1734.000000 1829.000000"
 preserveAspectRatio="xMidYMid meet">

<g transform="translate(0.000000,1829.000000) scale(0.100000,-0.100000)"
fill="#000000" stroke="none">
<path d="M8065 17375 c-167 -12 -220 -19 -350 -46 -172 -35 -387 -102 -535
-166 -71 -31 -273 -134 -300 -153 -16 -11 -31 -20 -35 -20 -10 0 -209 -135
-258 -174 -211 -169 -346 -302 -486 -475 -293 -367 -495 -806 -572 -1246 -39
-229 -42 -273 -48 -945 l-6 -665 -832 -3 -833 -2 -5 -23 c-12 -46 1 -2177 14
-2287 28 -256 36 -312 71 -490 60 -303 151 -603 260 -857 6 -13 14 -33 19 -45
32 -77 156 -327 200 -402 28 -49 51 -90 51 -92 0 -7 148 -236 203 -314 278
-393 667 -785 1047 -1057 298 -213 594 -377 932 -517 143 -59 370 -136 493
-167 17 -4 55 -14 85 -22 212 -56 541 -110 753 -122 86 -6 109 -10 115 -23 4
-10 5 -438 2 -952 l-5 -935 -468 -3 -467 -2 2 -215 3 -215 1154 0 c635 0 1159
4 1163 8 5 5 7 100 6 213 l-3 204 -459 3 c-319 1 -463 6 -473 13 -19 16 -20
1871 0 1887 7 6 57 13 112 17 151 10 353 38 541 74 168 33 547 139 639 180 11
5 47 19 80 32 33 12 78 30 100 39 22 10 65 28 95 41 173 72 478 240 675 372
413 277 789 632 1101 1042 203 266 424 654 558 977 130 315 244 728 287 1038
41 295 41 283 46 1433 3 615 2 1129 -1 1143 l-6 24 -823 0 c-452 0 -827 4
-834 8 -9 6 -13 177 -16 697 -2 483 -7 710 -15 755 -7 36 -17 97 -24 135 -25
158 -97 420 -144 522 -8 17 -14 34 -14 37 0 9 -56 131 -110 238 -48 96 -140
246 -208 343 -120 168 -364 426 -529 558 -199 159 -502 335 -718 417 -11 4
-33 13 -50 20 -208 84 -525 152 -765 165 -63 3 -142 7 -175 9 -33 3 -141 -2
-240 -9z m398 -435 c46 0 50 -24 11 -61 -14 -13 -34 -38 -45 -56 -12 -18 -25
-33 -30 -33 -5 0 -20 17 -33 38 -13 20 -38 52 -55 70 -43 46 -32 56 48 48 36
-3 83 -6 104 -6z m-862 -100 c0 -3 -12 -32 -28 -65 -59 -127 -56 -88 -60 -898
l-4 -747 248 2 248 3 5 660 c3 363 6 661 8 662 1 1 12 11 24 23 28 26 60 26
84 -1 18 -20 19 -48 22 -685 l2 -664 248 2 247 3 5 657 5 656 24 26 c31 33 64
33 90 0 21 -26 21 -34 21 -686 l0 -658 248 2 247 3 0 715 c0 701 -2 749 -31
853 -7 24 13 22 76 -12 256 -134 491 -312 674 -514 262 -288 445 -625 542
-1002 74 -283 69 -141 69 -2105 0 -1636 -1 -1773 -18 -1870 -67 -405 -217
-756 -458 -1076 -80 -105 -264 -302 -274 -293 -3 4 18 49 47 100 197 343 292
728 290 1176 0 262 -18 402 -92 733 -24 107 -104 353 -131 402 -5 10 -9 22 -9
28 0 55 -322 656 -357 668 -9 2 -13 -8 -13 -30 0 -18 -5 -49 -10 -68 -6 -19
-15 -62 -21 -95 -17 -102 -27 -148 -44 -210 -9 -33 -19 -75 -22 -93 -3 -18 -9
-35 -14 -38 -5 -3 -9 -14 -9 -24 0 -22 -98 -319 -130 -395 -4 -11 -23 -56 -40
-100 -18 -44 -41 -100 -52 -125 -11 -25 -26 -58 -33 -75 -55 -126 -121 -267
-267 -565 -119 -243 -159 -326 -225 -470 -19 -41 -39 -82 -43 -91 -5 -9 -27
-63 -50 -120 -23 -57 -45 -113 -50 -124 -9 -21 -56 -153 -70 -195 -7 -22 -16
-53 -52 -180 -5 -19 -14 -49 -19 -66 -5 -17 -9 -40 -9 -52 0 -11 -7 -47 -15
-79 -16 -61 -20 -133 -7 -133 4 0 20 26 36 58 17 31 45 81 63 110 18 29 33 55
33 58 0 13 263 400 410 604 265 366 446 638 559 842 61 111 150 297 165 346
26 81 65 -88 88 -375 16 -209 -1 -427 -49 -633 -8 -36 -18 -76 -23 -90 -4 -14
-14 -45 -21 -70 -39 -135 -138 -327 -229 -448 -209 -277 -512 -462 -890 -542
-116 -25 -391 -38 -434 -21 l-29 12 7 132 c13 268 39 441 97 658 90 332 175
508 621 1284 47 81 243 484 273 560 15 39 31 79 36 90 29 67 87 267 114 390
15 68 35 245 35 311 0 91 -23 240 -50 329 -36 115 -131 290 -154 282 -7 -2
-16 -65 -23 -163 -16 -195 -31 -293 -68 -419 -9 -33 -19 -71 -22 -85 -3 -14
-11 -39 -19 -57 -8 -17 -14 -38 -14 -46 0 -9 -4 -19 -10 -22 -5 -3 -10 -15
-10 -25 0 -10 -12 -47 -26 -82 -14 -35 -30 -72 -34 -83 -34 -84 -66 -153 -143
-304 -49 -96 -96 -186 -106 -200 -10 -14 -25 -42 -35 -61 -10 -19 -23 -44 -29
-55 -40 -67 -194 -327 -217 -365 -29 -49 -136 -235 -194 -340 -35 -63 -178
-352 -197 -397 -18 -44 -28 -68 -42 -103 -27 -63 -59 -154 -64 -183 -3 -15 -9
-30 -14 -33 -5 -3 -9 -16 -9 -30 0 -13 -4 -32 -9 -42 -14 -28 -43 -144 -61
-247 -5 -27 -16 -93 -25 -145 -9 -52 -19 -174 -22 -270 -2 -96 -8 -179 -13
-184 -11 -11 -177 70 -275 136 -135 90 -321 287 -394 418 -68 123 -120 257
-140 365 -36 194 -41 238 -41 341 0 105 17 236 40 310 6 17 10 37 10 44 0 16
45 144 61 172 5 10 9 22 9 27 0 10 63 153 82 186 6 11 26 49 45 85 37 72 46
88 118 208 101 167 144 233 335 507 248 356 580 860 580 881 0 4 6 15 14 23 8
9 27 40 42 69 16 29 42 77 57 105 16 29 47 87 69 130 23 43 46 76 52 74 25 -8
22 -342 -4 -421 -6 -16 -10 -40 -10 -54 0 -14 -4 -39 -9 -56 -5 -17 -17 -58
-26 -91 -9 -33 -21 -68 -26 -77 -5 -10 -9 -25 -9 -33 0 -8 -4 -23 -10 -33 -5
-9 -28 -64 -51 -121 -54 -135 -133 -289 -251 -491 -53 -91 -57 -98 -104 -175
-16 -27 -33 -57 -37 -65 -4 -8 -34 -58 -67 -110 -33 -52 -64 -102 -67 -110 -4
-8 -18 -33 -31 -54 -61 -98 -205 -380 -247 -481 -9 -22 -20 -48 -25 -57 -6
-10 -10 -27 -10 -37 0 -11 -4 -22 -9 -25 -5 -3 -11 -18 -14 -33 -3 -16 -13
-53 -22 -83 -30 -98 -39 -172 -39 -340 0 -188 9 -252 51 -365 9 -22 19 -49 23
-60 17 -45 83 -175 89 -175 4 0 13 48 20 108 23 184 72 399 121 517 4 11 20
52 35 90 76 191 195 406 404 730 370 571 431 672 537 885 109 218 168 382 217
605 29 135 30 149 31 390 0 198 -3 269 -17 340 -58 302 -114 462 -337 960 -10
22 -27 61 -38 88 -12 26 -23 47 -25 47 -2 0 -16 -33 -31 -72 -15 -40 -32 -82
-36 -93 -5 -11 -49 -119 -99 -240 -49 -121 -105 -254 -123 -295 -35 -81 -212
-436 -254 -510 -14 -25 -35 -62 -47 -84 -12 -21 -27 -46 -32 -55 -6 -9 -47
-77 -93 -151 -109 -179 -221 -349 -407 -615 -207 -299 -366 -537 -449 -675
-68 -112 -206 -375 -238 -455 -139 -338 -172 -487 -172 -785 0 -251 16 -353
91 -580 32 -99 120 -292 159 -352 10 -15 15 -30 11 -34 -7 -7 -122 111 -204
211 -50 61 -173 231 -173 240 0 2 -15 28 -33 57 -37 58 -157 301 -157 318 0 6
-4 18 -9 28 -45 81 -112 347 -143 562 -19 140 -19 3460 0 3600 42 294 108 513
233 766 63 129 191 328 277 434 153 186 431 433 577 514 17 9 48 28 70 41 39
24 250 129 290 145 11 4 38 15 60 23 22 9 58 21 80 28 22 7 44 17 50 21 9 8
27 7 26 -2z m-2121 -4595 c0 -803 5 -942 41 -1155 56 -332 175 -662 343 -950
361 -617 951 -1077 1641 -1280 41 -12 57 -16 185 -45 152 -34 428 -65 580 -65
143 0 446 32 560 59 25 5 77 17 115 27 75 17 247 69 280 84 11 5 56 23 100 41
91 35 258 118 355 176 382 227 704 537 940 907 100 157 250 450 250 490 0 6 4
16 8 21 22 24 115 348 133 460 5 33 17 103 26 155 14 81 17 224 22 980 l6 885
615 0 615 0 0 -900 c0 -922 0 -936 -41 -1195 -21 -139 -65 -350 -94 -450 -35
-124 -91 -294 -120 -365 -4 -11 -25 -63 -46 -115 -52 -128 -167 -361 -246
-495 -271 -459 -641 -876 -1053 -1185 -108 -81 -357 -250 -369 -250 -3 0 -29
-15 -58 -34 -102 -65 -411 -211 -578 -274 -229 -85 -348 -120 -580 -170 -520
-111 -993 -120 -1525 -31 -111 19 -344 73 -430 99 -74 23 -252 82 -270 90 -11
4 -67 27 -125 50 -476 192 -931 493 -1310 870 -236 234 -420 461 -579 715 -24
39 -52 82 -62 97 -11 15 -19 29 -19 31 0 1 -30 59 -68 128 -37 68 -82 158
-101 199 -19 41 -47 103 -62 138 -16 35 -29 70 -29 77 0 8 -4 16 -9 19 -5 3
-11 16 -14 28 -2 13 -18 61 -35 108 -90 252 -137 444 -181 730 -39 258 -41
302 -41 1204 l0 886 615 0 615 0 0 -795z"/>
<path d="M1385 4078 c-3 -7 -4 -485 -3 -1063 l3 -1050 273 -3 272 -2 0 575 c0
340 4 575 9 575 9 0 73 -111 219 -380 19 -36 38 -69 42 -75 4 -5 21 -35 38
-65 16 -30 44 -80 61 -110 18 -30 35 -63 38 -72 8 -25 46 -29 253 -26 l185 3
78 140 c43 77 94 168 113 203 19 34 43 77 53 95 67 119 89 159 120 216 20 35
41 63 46 63 6 -1 11 -202 13 -572 l2 -570 270 2 270 3 0 1055 c0 580 0 1058 0
1063 0 4 -128 7 -285 7 l-285 0 -23 -37 c-13 -21 -54 -96 -92 -168 -37 -71
-71 -134 -75 -140 -4 -5 -35 -64 -70 -130 -35 -66 -73 -138 -85 -160 -27 -49
-89 -165 -143 -265 -84 -158 -111 -205 -119 -207 -5 -2 -23 25 -41 59 -18 35
-50 97 -73 138 -22 41 -61 113 -86 160 -25 47 -60 112 -78 145 -18 33 -70 130
-115 215 -131 246 -172 323 -190 355 l-17 30 -287 3 c-224 2 -288 0 -291 -10z"/>
<path d="M4671 3978 c-23 -62 -69 -183 -101 -268 -32 -85 -86 -229 -120 -320
-34 -91 -65 -174 -70 -185 -5 -11 -25 -65 -45 -120 -20 -55 -47 -127 -60 -160
-13 -33 -40 -105 -60 -160 -20 -55 -47 -127 -60 -160 -13 -33 -40 -105 -60
-160 -20 -55 -41 -109 -45 -120 -28 -67 -130 -344 -130 -353 0 -9 75 -12 293
-12 l292 0 38 108 c21 59 50 139 64 177 13 39 26 76 29 83 5 18 749 18 761 0
7 -12 26 -64 67 -183 10 -27 29 -80 43 -117 l25 -68 294 0 c162 0 294 3 294 8
0 4 -11 34 -24 67 -23 55 -76 196 -193 510 -24 66 -55 147 -68 180 -13 33 -39
103 -58 155 -52 142 -158 422 -167 445 -10 23 -115 305 -167 445 -19 52 -38
104 -43 115 -4 11 -14 38 -23 60 -8 22 -24 63 -34 90 l-19 50 -306 3 -305 2
-42 -112z m467 -885 c62 -186 113 -341 112 -345 0 -5 -106 -8 -236 -8 -185 0
-235 3 -232 13 3 6 13 37 22 67 10 30 21 64 26 75 5 11 41 117 80 235 86 259
101 300 109 300 4 0 57 -152 119 -337z"/>
<path d="M6523 4070 c-230 -58 -336 -189 -373 -463 -6 -46 -10 -296 -10 -610
0 -563 6 -660 49 -774 51 -138 149 -224 308 -271 50 -15 105 -17 388 -16 182
0 404 6 495 12 358 27 589 48 623 58 16 5 17 39 15 587 l-3 582 -462 3 -463 2
-5 -22 c-3 -13 -4 -95 -3 -183 l3 -160 195 -5 195 -5 3 -206 c2 -182 0 -208
-14 -220 -14 -11 -84 -15 -343 -18 -366 -4 -369 -3 -410 69 -21 37 -21 45 -21
571 0 502 2 536 19 576 37 81 9 77 601 83 l525 5 3 213 2 212 -622 -1 c-566
-1 -630 -2 -695 -19z"/>
<path d="M8335 4078 c-3 -7 -4 -485 -3 -1063 l3 -1050 273 -3 272 -2 0 620 c0
491 3 620 13 620 6 0 19 -15 26 -32 8 -18 27 -53 41 -78 15 -25 96 -166 180
-315 84 -148 161 -283 170 -300 9 -16 68 -120 130 -230 62 -110 123 -218 135
-240 l23 -40 291 -3 291 -2 0 1065 0 1065 -272 -2 -273 -3 0 -623 c0 -367 -4
-621 -9 -619 -7 2 -181 300 -319 547 -16 30 -38 69 -47 85 -10 17 -57 100
-105 185 -48 85 -98 173 -111 195 -12 22 -47 83 -76 135 l-54 95 -287 3 c-225
2 -289 0 -292 -10z"/>
<path d="M10562 3213 l3 -878 24 -70 c48 -136 124 -225 235 -275 122 -54 140
-55 686 -55 557 0 570 1 696 62 117 56 187 149 231 303 17 61 18 122 18 925
l0 860 -270 0 -270 0 -5 -815 c-6 -908 -1 -846 -73 -890 -30 -19 -52 -20 -325
-20 -274 0 -295 1 -332 20 -79 41 -75 -15 -78 898 l-2 812 -270 0 -271 0 3
-877z"/>
<path d="M12830 4083 c0 -5 0 -483 0 -1063 l0 -1055 270 -3 270 -2 0 575 c0
504 2 575 15 575 8 0 15 -5 15 -11 0 -16 372 -681 393 -701 15 -16 39 -18 216
-18 147 0 201 3 209 13 5 6 22 35 38 62 33 61 29 53 194 350 73 132 141 253
150 269 39 72 40 62 40 -538 l0 -576 264 0 c145 0 271 3 280 6 14 6 16 108 16
1059 0 951 -2 1053 -16 1059 -9 3 -141 6 -294 6 -210 0 -280 -3 -288 -12 -10
-14 -15 -22 -215 -398 -22 -41 -47 -88 -57 -105 -9 -16 -41 -75 -70 -130 -29
-55 -65 -122 -80 -150 -15 -27 -49 -90 -75 -140 -78 -145 -92 -169 -102 -172
-5 -2 -23 25 -41 59 -17 35 -53 104 -80 153 -27 50 -85 158 -129 240 -44 83
-115 215 -158 295 -43 80 -100 188 -128 240 -27 52 -54 101 -60 108 -7 9 -78
12 -293 12 -156 0 -284 -3 -284 -7z"/>
<path d="M12477 1903 c-4 -3 -7 -46 -7 -95 l0 -88 -129 0 c-139 0 -196 -13
-239 -53 -45 -42 -52 -77 -52 -265 0 -157 2 -180 21 -218 32 -67 85 -88 203
-82 72 4 103 10 143 31 51 25 73 22 73 -10 0 -10 23 -13 90 -13 l90 0 0 400 0
400 -93 0 c-52 0 -97 -3 -100 -7z m-7 -478 c0 -157 6 -148 -117 -160 -99 -10
-103 -5 -103 141 0 64 5 124 10 135 10 17 22 19 110 19 l100 0 0 -135z"/>
<path d="M14817 1843 c-3 -5 -8 -26 -12 -48 -12 -69 -14 -74 -48 -77 l-32 -3
0 -75 0 -75 32 -3 32 -3 3 -179 c3 -162 5 -181 24 -206 45 -61 66 -69 192 -72
66 -2 129 1 145 7 25 10 27 14 27 70 0 35 -5 63 -12 67 -6 4 -38 6 -70 5 -41
-2 -67 3 -84 13 -24 16 -24 19 -24 156 l0 140 63 0 c36 0 68 5 75 12 7 7 12
37 12 68 0 31 -5 61 -12 68 -7 7 -39 12 -75 12 l-62 0 -3 63 -3 62 -82 3 c-45
1 -84 -1 -86 -5z"/>
<path d="M10951 1720 c-24 -5 -61 -19 -83 -30 -50 -26 -56 -25 -68 5 -10 25
-12 26 -92 23 l-83 -3 -3 -389 c-2 -284 1 -392 9 -403 9 -10 34 -13 98 -11
l86 3 5 95 5 95 150 5 c166 6 198 16 235 75 17 27 19 54 21 233 1 186 0 204
-19 234 -11 18 -34 41 -51 51 -37 22 -146 30 -210 17z m79 -179 c5 -11 10 -71
10 -135 0 -148 0 -148 -124 -144 l-91 3 -3 129 c-2 83 1 133 8 142 13 15 43
20 127 23 52 1 64 -2 73 -18z"/>
<path d="M11471 1720 c-46 -11 -82 -39 -109 -86 -22 -37 -22 -47 -20 -234 3
-183 4 -197 25 -226 48 -67 56 -69 290 -69 l211 0 39 31 c55 45 62 74 62 279
1 204 -4 225 -72 279 l-39 31 -176 2 c-98 1 -192 -2 -211 -7z m282 -159 c14
-11 17 -35 17 -150 0 -93 -4 -141 -12 -149 -8 -8 -46 -12 -105 -12 -81 0 -94
2 -103 19 -5 11 -10 78 -10 150 0 123 1 131 23 146 28 20 165 18 190 -4z"/>
<path d="M13602 1719 c-78 -5 -140 -13 -148 -20 -11 -9 -14 -29 -12 -73 l3
-61 35 1 c19 1 89 5 155 9 113 7 121 6 138 -13 10 -11 17 -31 15 -44 -3 -23
-5 -23 -153 -28 -82 -3 -157 -9 -165 -14 -63 -38 -90 -92 -90 -182 0 -92 29
-150 89 -177 65 -28 196 -21 270 17 29 14 54 26 56 26 2 0 5 -10 7 -22 3 -22
8 -23 96 -26 l92 -3 0 234 c0 153 -4 246 -12 268 -20 58 -47 86 -100 103 -54
17 -71 17 -276 5z m186 -406 c3 -29 0 -33 -35 -42 -86 -22 -123 -23 -148 -7
-29 19 -32 47 -9 71 13 12 34 15 103 13 l86 -3 3 -32z"/>
<path d="M12905 1708 c-52 -18 -93 -56 -110 -101 -14 -37 -16 -74 -13 -224 3
-177 3 -180 30 -215 51 -66 76 -72 297 -65 123 5 199 11 208 19 10 8 13 30 11
77 -3 63 -4 66 -28 64 -14 -1 -83 -4 -153 -8 -171 -9 -167 -13 -167 149 0 67
5 128 10 136 7 12 42 16 172 20 l163 5 0 75 0 75 -195 2 c-117 1 -207 -3 -225
-9z"/>
<path d="M14175 1707 c-82 -32 -115 -84 -115 -182 0 -91 26 -141 90 -172 40
-21 59 -23 187 -23 138 0 143 -1 143 -21 0 -11 -5 -30 -11 -41 -11 -20 -16
-20 -167 -13 -87 4 -173 8 -192 9 l-35 1 -3 -61 c-4 -90 -3 -90 183 -99 85 -4
196 -5 247 -3 l91 4 37 42 c71 80 67 244 -8 299 -46 33 -63 37 -206 42 -116 5
-141 9 -150 23 -8 13 -6 22 8 37 18 20 30 21 183 21 l164 0 -3 73 -3 72 -205
2 c-138 1 -215 -2 -235 -10z"/>
</g>
</svg>
