<?xml version="1.0" standalone="no"?>
<!DOCTYPE svg PUBLIC "-//W3C//DTD SVG 20010904//EN"
 "http://www.w3.org/TR/2001/REC-SVG-20010904/DTD/svg10.dtd">
<svg version="1.0" xmlns="http://www.w3.org/2000/svg"
 width="831.000000pt" height="831.000000pt" viewBox="0 0 831.000000 831.000000"
 preserveAspectRatio="xMidYMid meet">

<g transform="translate(0.000000,831.000000) scale(0.100000,-0.100000)"
fill="#000000" stroke="none">
<path d="M3790 8143 c-261 -26 -479 -67 -662 -123 -106 -33 -421 -161 -533
-217 -291 -146 -661 -399 -905 -619 -141 -128 -342 -346 -423 -459 -39 -55
-85 -118 -102 -140 -65 -81 -475 -704 -475 -721 0 -13 -220 -333 -260 -377
-24 -27 -65 -63 -90 -79 -40 -26 -42 -28 -15 -22 62 13 195 86 276 151 46 37
135 119 197 182 61 63 112 111 112 107 0 -3 -11 -29 -25 -56 -77 -153 -207
-579 -260 -855 -47 -248 -58 -374 -59 -665 -1 -296 4 -360 49 -605 25 -138 86
-357 130 -465 l26 -65 -6 60 c-29 313 39 794 173 1230 l19 60 6 -40 c3 -22 11
-83 17 -135 36 -306 140 -733 264 -1090 152 -434 418 -981 615 -1260 55 -79
62 -80 32 -4 -183 468 -279 793 -331 1124 -7 41 -16 99 -21 129 -22 131 -7
113 70 -89 181 -473 363 -901 377 -887 3 3 -3 36 -14 74 -36 125 -100 367
-122 463 -12 52 -26 109 -30 125 -22 77 -103 531 -98 547 2 6 18 -20 36 -58
31 -67 60 -149 202 -554 38 -107 91 -256 120 -330 28 -74 67 -176 86 -227 60
-159 176 -382 242 -463 59 -74 132 -143 210 -200 100 -72 343 -187 492 -232
178 -54 295 -88 360 -103 36 -9 83 -20 105 -25 243 -58 367 -84 480 -100 44
-6 107 -15 141 -21 33 -5 81 -9 107 -9 50 0 309 78 447 134 76 31 86 33 94 19
5 -9 11 -69 14 -132 4 -105 2 -121 -18 -163 -27 -59 -122 -149 -260 -249 -58
-41 -139 -99 -180 -129 -189 -136 -294 -244 -345 -355 -28 -61 -39 -97 -61
-202 l-4 -23 1290 0 1290 0 0 28 c0 61 -33 208 -57 256 -42 83 -93 158 -137
201 -23 22 -114 96 -203 163 -196 148 -297 247 -353 344 -45 79 -100 229 -100
274 0 51 70 356 90 394 10 18 15 -12 31 -200 15 -186 21 -203 43 -128 9 32 74
171 144 310 l127 253 7 -135 c9 -160 43 -332 61 -304 3 6 15 42 26 80 29 100
254 724 260 719 5 -6 -14 -142 -44 -310 -36 -201 -37 -211 -20 -194 24 24 102
166 184 334 75 153 181 409 181 436 0 7 3 10 6 7 5 -6 -28 -204 -77 -468 -18
-97 -36 -166 -55 -215 -5 -13 1 -10 17 10 23 27 36 48 89 140 9 17 40 70 69
119 28 49 51 90 51 92 0 1 23 41 50 89 28 48 50 88 50 90 0 1 21 40 46 86 71
128 225 441 279 566 27 62 50 111 51 110 2 -2 -14 -57 -35 -122 -62 -192 -93
-296 -89 -300 7 -7 172 251 214 335 145 287 296 794 323 1085 20 210 23 456 7
695 -20 292 -42 417 -129 740 -19 69 -37 136 -40 150 -18 64 306 -610 365
-760 31 -79 33 -82 36 -50 8 82 -66 420 -157 721 -134 438 -190 585 -336 884
-146 299 -309 537 -496 724 -250 249 -470 383 -830 502 -146 49 -216 66 -339
84 -192 29 -205 32 -256 62 -108 62 -345 125 -679 181 -223 38 -319 49 -510
62 -140 9 -567 11 -645 3z m1437 -375 c-3 -8 -6 -5 -6 6 -1 11 2 17 5 13 3 -3
4 -12 1 -19z m-2528 -62 c-2 -2 -68 -36 -146 -76 -79 -40 -143 -77 -143 -81 0
-5 -7 -9 -15 -9 -8 0 -15 -5 -15 -10 0 -10 -48 -35 -62 -32 -5 1 -8 -3 -8 -10
0 -6 -3 -8 -7 -5 -9 9 -34 -13 -27 -24 3 -5 -2 -6 -10 -3 -9 3 -16 1 -16 -5 0
-6 -7 -11 -15 -11 -8 0 -15 -5 -15 -12 0 -6 -3 -9 -6 -5 -6 5 -49 -23 -157
-101 -18 -13 -36 -30 -40 -38 -4 -8 -14 -14 -22 -14 -8 0 -19 -9 -25 -20 -6
-11 -15 -18 -20 -15 -5 3 -15 -3 -22 -15 -7 -11 -18 -20 -25 -20 -7 0 -13 -5
-13 -11 0 -5 -4 -7 -10 -4 -5 3 -10 1 -10 -5 0 -7 -7 -10 -17 -6 -15 5 -14 3
2 -10 16 -12 17 -15 3 -12 -9 2 -47 -24 -85 -57 l-68 -59 70 74 c38 41 72 75
75 75 16 0 79 59 73 69 -3 6 -3 8 2 4 11 -11 45 10 45 28 0 9 5 12 12 8 7 -5
9 -2 5 8 -7 20 28 55 38 38 3 -6 1 -9 -5 -8 -7 2 -14 -6 -16 -17 -2 -17 2 -15
22 9 18 21 22 31 13 36 -8 5 -4 10 12 16 13 4 27 7 32 6 4 -1 7 5 7 13 0 22
27 30 48 14 15 -12 15 -12 5 1 -13 17 -9 27 21 50 18 13 19 13 11 0 -5 -8 5
-4 22 10 63 50 77 60 91 60 7 0 10 5 7 10 -5 9 10 15 18 8 1 -2 13 7 27 20 13
12 30 20 37 18 7 -3 15 0 19 6 5 7 2 8 -7 4 -8 -4 -6 -1 4 8 11 8 26 12 35 9
11 -5 13 -3 7 7 -5 8 -4 11 3 6 6 -3 13 -2 17 4 3 5 11 10 18 10 6 0 2 -6 -9
-14 -10 -8 -15 -18 -11 -22 4 -5 11 -4 15 1 4 6 14 11 22 13 8 2 51 20 95 41
90 43 126 58 114 47z m2671 -39 c0 -2 -17 -19 -37 -38 l-38 -34 34 38 c33 34
41 42 41 34z m129 -161 c-10 -8 -119 -54 -119 -50 0 6 101 54 114 54 5 0 7 -2
5 -4z m-2954 -44 c-18 -15 -85 -54 -85 -48 0 3 19 16 43 30 43 26 59 33 42 18z
m-115 -70 c-88 -60 -180 -134 -180 -143 0 -6 -26 -37 -57 -68 -32 -31 -56 -60
-55 -64 1 -5 -2 -6 -7 -3 -5 4 -18 -7 -27 -24 -17 -28 -27 -34 -47 -31 -5 1
-6 -3 -2 -9 8 -13 -14 -42 -26 -34 -5 3 -9 1 -9 -5 0 -5 4 -11 8 -13 4 -1 -8
-16 -27 -33 -19 -16 -31 -23 -27 -15 5 8 -4 2 -18 -15 -27 -29 -27 -30 -21 -5
6 24 5 24 -10 -2 -9 -16 -20 -28 -26 -28 -6 0 -7 -4 -4 -10 3 -5 2 -10 -3 -10
-5 0 -22 -18 -37 -40 -42 -60 -42 -41 0 24 19 31 33 56 29 56 -9 0 38 74 53
83 6 4 10 14 7 21 -3 7 2 21 11 30 15 15 12 20 -8 17 -10 -2 46 81 67 98 19
16 22 35 4 25 -8 -4 -10 -3 -5 2 5 5 13 9 18 9 5 0 9 4 8 9 0 5 10 14 23 21
13 6 22 18 20 26 -2 8 0 11 4 7 4 -4 33 15 64 42 32 28 61 50 64 50 4 0 -6
-11 -21 -25 -28 -25 -28 -25 -6 -31 13 -3 20 -10 17 -15 -3 -5 2 -6 10 -3 9 3
13 11 10 16 -4 6 2 5 14 -1 25 -13 35 -14 27 -2 -3 5 0 13 6 17 8 4 9 3 5 -4
-13 -21 2 -13 86 43 45 30 84 55 87 54 3 0 -5 -8 -19 -17z m-220 -249 c-172
-178 -179 -184 -131 -126 48 60 238 253 248 253 3 0 -49 -57 -117 -127z m3353
53 c18 -8 41 -20 51 -28 17 -14 17 -15 2 -21 -12 -5 -15 -3 -10 6 5 9 4 9 -7
0 -19 -18 -49 -16 -86 7 -64 39 -24 68 50 36z m42 -156 c14 -5 25 -12 25 -14
0 -5 -92 24 -100 32 -6 6 41 -5 75 -18z m27 -72 c72 -41 99 -60 94 -65 -3 -3
-20 6 -38 20 -18 14 -61 39 -95 56 -35 17 -63 33 -63 36 0 7 47 -15 102 -47z
m48 31 c17 -13 18 -17 5 -10 -33 17 -51 31 -40 31 6 0 21 -10 35 -21z m-3370
-66 c-47 -43 -132 -122 -189 -178 -77 -73 -93 -86 -61 -47 24 30 93 97 153
150 61 54 124 109 141 124 17 15 33 27 36 28 3 0 -33 -35 -80 -77z m-170 24
c0 -2 -12 -14 -27 -28 l-28 -24 24 28 c23 25 31 32 31 24z m3444 -181 c39 -39
87 -91 106 -116 19 -25 -15 5 -75 66 -61 61 -137 135 -170 164 l-60 52 64 -47
c35 -27 96 -80 135 -119z m-3375 151 c-2 -1 -40 -36 -84 -77 l-80 -74 76 77
c42 42 80 77 84 77 5 0 6 -1 4 -3z m3396 -77 c21 -22 37 -40 34 -40 -3 0 -23
18 -44 40 -21 22 -37 40 -34 40 3 0 23 -18 44 -40z m-2365 6 c0 -2 -12 -11
-27 -20 l-28 -17 24 20 c23 21 31 25 31 17z m-60 -39 c0 -2 -48 -40 -107 -84
-101 -76 -196 -165 -235 -223 -13 -19 -16 -20 -11 -5 17 55 138 169 287 272
64 44 66 45 66 40z m2321 -24 c13 -16 12 -17 -3 -4 -10 7 -18 15 -18 17 0 8 8
3 21 -13z m-2996 -31 c-22 -20 -39 -41 -37 -45 1 -5 -2 -6 -8 -2 -5 3 -10 -1
-10 -10 0 -13 -4 -14 -21 -4 -13 7 -19 7 -15 1 10 -16 -105 -123 -129 -121 -5
0 -4 3 3 6 10 4 10 8 0 20 -11 14 -10 15 12 9 16 -5 20 -4 12 2 -14 9 -6 45 8
37 5 -3 11 -1 15 5 3 5 1 10 -6 10 -8 0 -8 4 1 15 7 8 16 12 21 9 5 -3 9 -1 9
4 0 12 59 34 71 26 5 -3 12 3 16 13 10 29 34 52 48 47 7 -3 16 -1 20 5 3 6 12
11 18 11 7 0 -6 -17 -28 -38z m2883 -105 c35 -52 95 -157 89 -157 -2 0 -28 39
-57 86 -29 48 -77 116 -107 153 l-54 66 50 -53 c28 -29 64 -72 79 -95z m-2008
118 c0 -2 -36 -30 -80 -61 -83 -58 -95 -70 -59 -59 16 5 20 4 15 -6 -4 -8 -1
-6 7 4 8 9 20 17 26 17 7 0 10 4 7 9 -3 5 1 11 9 14 10 4 12 1 8 -10 -5 -13
-3 -14 15 -4 12 7 22 17 22 23 0 6 3 8 7 5 3 -4 31 7 61 24 30 17 56 28 59 26
4 -4 -118 -80 -189 -117 -16 -9 -26 -19 -22 -23 4 -4 -1 -7 -12 -7 -11 0 -57
-25 -104 -55 -53 -35 -72 -44 -50 -25 19 17 34 35 33 40 -2 5 3 7 10 4 7 -2
24 6 37 18 14 13 29 23 34 23 14 0 19 22 7 30 -18 10 -51 -14 -45 -33 5 -14 4
-15 -5 -2 -13 19 -14 18 106 101 103 72 103 72 103 64z m140 1 c0 -2 -7 -7
-16 -10 -8 -3 -12 -2 -9 4 6 10 25 14 25 6z m1924 -98 c26 -45 16 -35 -38 42
-33 46 -37 54 -14 28 18 -20 42 -51 52 -70z m-3010 66 c3 -8 2 -12 -4 -9 -6 3
-10 10 -10 16 0 14 7 11 14 -7z m-214 -7 c0 -2 -10 -12 -22 -23 l-23 -19 19
23 c18 21 26 27 26 19z m740 0 c0 -2 -10 -12 -22 -23 l-23 -19 19 23 c18 21
26 27 26 19z m-340 -10 c0 -2 -12 -14 -27 -28 l-28 -24 24 28 c23 25 31 32 31
24z m990 -1 c0 -3 -15 -14 -32 -26 l-33 -22 30 26 c31 27 35 29 35 22z m357
-79 c-83 -95 -285 -300 -241 -244 22 26 40 52 40 57 1 6 3 13 4 18 1 4 2 9 2
12 0 3 9 17 20 30 11 14 17 19 13 13 -3 -7 -1 -13 4 -13 6 0 11 7 11 15 0 8 3
14 8 13 15 -5 70 38 127 102 33 36 62 65 64 63 2 -1 -21 -31 -52 -66z m1365
-32 c13 -25 2 -13 -46 50 l-38 50 37 -40 c20 -22 41 -49 47 -60z m-2422 82 c0
-2 -10 -12 -22 -23 l-23 -19 19 23 c18 21 26 27 26 19z m790 -7 c-35 -24 -54
-31 -30 -11 14 11 30 21 35 21 6 0 3 -5 -5 -10z m-1140 -13 c0 -2 -19 -21 -42
-42 l-43 -40 40 43 c36 39 45 47 45 39z m290 -32 c-7 -9 -32 -30 -54 -46 -35
-27 -34 -25 9 15 51 47 67 58 45 31z m790 11 c0 -2 -7 -7 -16 -10 -8 -3 -12
-2 -9 4 6 10 25 14 25 6z m1840 -36 c6 -11 8 -20 6 -20 -3 0 -10 9 -16 20 -6
11 -8 20 -6 20 3 0 10 -9 16 -20z m-864 -184 c-9 -33 -18 -61 -21 -64 -7 -7 4
54 16 92 5 16 10 61 11 100 l2 71 3 -70 c2 -43 -2 -95 -11 -129z m261 132 c-3
-7 -5 -2 -5 12 0 14 2 19 5 13 2 -7 2 -19 0 -25z m-867 18 c0 -2 -8 -10 -17
-17 -16 -13 -17 -12 -4 4 13 16 21 21 21 13z m927 -18 c-3 -8 -6 -5 -6 6 -1
11 2 17 5 13 3 -3 4 -12 1 -19z m421 -3 c-3 -3 -9 2 -12 12 -6 14 -5 15 5 6 7
-7 10 -15 7 -18z m20 -40 c-3 -3 -9 2 -12 12 -6 14 -5 15 5 6 7 -7 10 -15 7
-18z m22 -50 c0 -5 -5 -3 -10 5 -5 8 -10 20 -10 25 0 6 5 3 10 -5 5 -8 10 -19
10 -25z m98 -10 c-3 -3 -9 2 -12 12 -6 14 -5 15 5 6 7 -7 10 -15 7 -18z m-614
-790 c-59 -308 -108 -800 -102 -1024 l3 -114 -45 -15 c-69 -22 -281 -101 -317
-117 -17 -8 -34 -15 -38 -15 -12 0 5 78 56 255 83 294 194 595 313 847 53 115
135 263 141 256 2 -2 -3 -34 -11 -73z m352 -215 c35 -178 109 -783 98 -801 -2
-4 -27 -9 -56 -13 -56 -7 -286 -51 -327 -62 -19 -6 -22 -4 -18 12 3 10 26 102
51 204 25 102 61 244 80 315 50 188 126 483 127 492 1 19 32 -79 45 -147z
m-1270 -216 c-55 -320 -86 -773 -67 -985 11 -115 10 -125 -6 -136 -71 -50
-123 -96 -123 -109 0 -8 25 6 62 36 34 28 66 50 70 50 4 0 8 -10 9 -22 0 -13
6 -113 12 -223 l12 -200 27 110 c15 61 41 171 58 245 48 203 40 191 177 258
260 127 591 253 598 228 1 -6 12 -70 24 -141 12 -72 25 -144 30 -160 8 -30 8
-30 14 -5 3 14 14 88 25 165 29 198 22 187 134 213 110 25 261 52 293 52 28 0
29 -8 49 -285 24 -338 27 -428 13 -422 -7 3 -49 22 -94 42 -236 104 -543 83
-789 -53 -151 -84 -262 -206 -360 -397 l-51 -100 -2 -134 c-2 -132 13 -256 29
-231 5 7 10 -2 14 -25 9 -45 26 -85 38 -85 4 0 8 48 8 106 0 233 54 412 173
569 52 69 158 153 237 188 70 31 205 64 293 71 l68 5 -50 -54 c-66 -73 -105
-143 -133 -240 -20 -70 -23 -102 -22 -255 0 -148 3 -187 21 -252 53 -188 149
-356 270 -469 l70 -66 -71 -12 c-188 -32 -245 -44 -240 -52 3 -5 -4 -9 -15 -9
-12 0 -21 -5 -21 -11 0 -6 -8 -8 -17 -5 -17 6 -17 5 -1 -7 10 -8 16 -16 13
-18 -2 -3 17 -6 43 -7 44 -2 150 17 515 89 82 16 161 29 175 29 26 1 88 29 67
30 -5 0 -2 5 8 11 9 5 17 15 17 20 0 6 18 31 40 56 49 56 130 220 164 333 23
77 44 183 61 313 4 30 10 45 17 41 7 -5 9 0 6 14 -4 13 -2 20 3 16 6 -3 9 -13
8 -22 -1 -10 -1 -84 0 -167 l2 -150 30 75 c34 86 99 290 140 435 32 116 33
109 19 -140 -5 -99 -14 -319 -20 -490 -15 -439 -32 -605 -99 -960 -12 -60 -23
-117 -26 -125 -3 -8 -31 -32 -63 -52 -90 -58 -490 -249 -684 -326 -97 -39
-199 -81 -225 -93 -26 -12 -59 -25 -73 -30 -14 -4 -81 -28 -150 -54 -287 -107
-348 -125 -435 -125 -149 0 -576 83 -945 184 -263 72 -320 92 -470 164 -148
71 -273 156 -361 248 -157 162 -241 330 -425 844 -36 102 -93 259 -125 349
-33 90 -58 166 -55 168 3 4 147 -216 157 -242 18 -43 91 -176 95 -172 8 8 -32
164 -87 339 -81 260 -142 516 -162 683 -6 47 -10 54 77 -155 79 -193 149 -339
217 -452 43 -73 53 -99 58 -153 8 -71 21 -98 22 -44 0 19 2 30 4 24 2 -5 10
-35 20 -65 30 -102 68 -191 76 -179 7 11 14 -10 53 -146 14 -47 15 -48 17 -17
4 66 10 72 38 36 30 -38 27 -14 -13 114 -40 125 -42 138 -61 365 -25 294 -19
342 54 415 28 27 40 32 80 32 27 0 63 -5 81 -11 l33 -12 -6 -111 c-4 -61 -9
-122 -12 -136 -5 -22 -4 -21 9 5 9 17 25 54 37 83 12 29 24 51 26 49 2 -3 -1
-35 -7 -72 -12 -76 -4 -148 36 -325 63 -281 175 -526 299 -659 44 -47 45 -49
23 -55 -13 -3 -43 -6 -68 -7 -42 -1 -108 -15 -85 -18 6 -1 1 -9 -10 -17 -18
-15 -13 -16 75 -11 110 5 227 37 267 72 28 23 28 24 27 152 0 103 -6 149 -26
233 -24 93 -130 377 -174 463 -52 101 -261 377 -285 377 -12 0 -12 31 1 50 8
12 16 8 51 -25 22 -22 59 -66 80 -97 22 -32 42 -58 45 -58 16 0 -59 110 -107
157 l-56 56 45 114 c31 76 50 112 59 109 9 -4 11 3 7 22 -11 58 384 780 513
935 l23 29 0 -156 c0 -238 26 -523 70 -766 24 -132 37 -220 46 -303 3 -32 7
-57 10 -55 6 7 21 92 65 372 45 293 103 604 148 806 34 151 97 402 110 440 5
14 24 71 42 127 18 57 34 101 36 99 2 -2 -3 -44 -11 -92z m1727 -171 c47 -151
97 -347 97 -383 0 -19 -7 -20 -106 -20 l-106 0 6 28 c10 45 34 289 42 410 4
61 10 112 14 112 4 0 28 -66 53 -147z m-1269 -28 c-25 -144 -44 -308 -50 -430
-3 -66 -7 -131 -9 -145 -2 -14 -4 -40 -4 -57 -1 -32 -5 -35 -140 -102 l-140
-70 16 52 c22 76 95 277 141 392 72 179 192 449 197 443 2 -2 -3 -39 -11 -83z
m-1764 -432 c-17 -124 -40 -419 -40 -526 0 -54 -3 -97 -7 -95 -87 40 -163 85
-163 95 0 23 38 186 59 248 44 136 147 372 158 361 2 -2 -1 -39 -7 -83z m3154
-45 c51 -298 68 -526 67 -887 0 -156 -2 -285 -4 -287 -2 -2 -37 45 -78 103
-85 123 -221 270 -303 328 -42 30 -55 45 -52 60 2 11 15 72 30 135 30 135 49
243 76 435 31 217 17 194 118 198 48 1 97 4 108 5 20 2 23 -6 38 -90z m-3267
-566 l68 -37 13 -189 c6 -104 10 -191 8 -193 -2 -2 -15 1 -30 7 -42 16 -107
12 -155 -10 -24 -11 -45 -20 -47 -20 -15 0 2 269 27 423 13 78 8 78 116 19z
m-510 -184 c-3 -8 -6 -5 -6 6 -1 11 2 17 5 13 3 -3 4 -12 1 -19z m41 -143 c37
-137 96 -328 122 -397 11 -29 20 -66 19 -83 -1 -40 -77 191 -134 410 -25 94
-45 174 -45 179 0 23 10 -7 38 -109z m2960 109 c24 -7 63 -72 76 -128 9 -35
-10 -128 -36 -179 -47 -94 -139 -148 -197 -116 -46 25 -63 74 -57 159 8 114
58 215 125 250 39 21 54 23 89 14z m1728 -299 c112 -35 177 -147 175 -303 -1
-189 -109 -399 -280 -551 -130 -115 -205 -145 -266 -105 -22 14 -23 14 -18 -5
3 -11 -1 -37 -7 -58 -15 -46 -122 -275 -126 -270 -2 2 26 93 62 203 80 247
126 394 170 549 56 196 71 253 106 398 32 134 34 138 63 146 45 13 66 13 121
-4z m-3938 -171 c40 -11 65 -77 70 -184 3 -87 2 -98 -20 -130 -17 -26 -32 -36
-56 -38 -51 -5 -66 40 -66 201 -1 116 1 130 18 143 22 16 23 16 54 8z m-591
-191 c-3 -10 -5 -4 -5 12 0 17 2 24 5 18 2 -7 2 -21 0 -30z m2798 -345 c80
-103 83 -108 61 -108 -27 0 -108 82 -132 135 -49 105 -23 95 71 -27z m397 60
c13 -38 -6 -80 -35 -76 -29 4 -37 61 -11 89 22 24 35 20 46 -13z m189 2 c30
-17 24 -61 -18 -118 -21 -29 -44 -54 -51 -57 -18 -7 -48 10 -56 31 -11 30 13
91 49 123 39 34 47 36 76 21z m540 -237 c-24 -210 -31 -283 -37 -431 -7 -148
-8 -155 -37 -198 -25 -38 -137 -144 -152 -144 -3 0 5 24 17 53 11 28 29 81 39
117 23 78 155 620 165 673 13 73 16 27 5 -70z m-3181 -61 c14 -20 46 -67 72
-104 26 -37 43 -70 38 -73 -25 -15 -134 120 -146 183 -9 43 5 40 36 -6z m168
-79 c2 -17 -3 -35 -12 -42 -22 -18 -40 18 -26 54 13 34 34 27 38 -12z m100
-60 c4 -66 -11 -98 -38 -83 -38 20 -21 145 18 138 13 -2 18 -16 20 -55z m2416
-855 c3 -40 8 -113 12 -163 15 -214 90 -400 219 -543 26 -29 46 -54 44 -56
-14 -10 -208 -89 -270 -110 -93 -30 -300 -66 -379 -66 -157 0 -410 74 -537
158 -23 14 -23 14 35 71 87 85 107 134 107 256 0 55 -3 121 -7 146 l-7 46 167
68 c203 82 409 172 517 224 44 22 83 40 87 40 3 1 9 -32 12 -71z m-1518 -1260
c-9 -13 -27 -43 -41 -68 -13 -25 -24 -40 -25 -35 -1 21 64 125 78 125 3 0 -3
-10 -12 -22z"/>
<path d="M2205 7459 c-4 -6 -5 -12 -2 -15 2 -3 7 2 10 11 7 17 1 20 -8 4z"/>
<path d="M2057 7353 c3 -7 6 -13 8 -13 2 0 5 6 8 13 3 8 -1 14 -8 14 -7 0 -11
-6 -8 -14z"/>
<path d="M2125 7268 l-40 -43 43 40 c23 21 42 40 42 42 0 8 -9 0 -45 -39z"/>
<path d="M1993 7128 c-11 -13 -24 -30 -28 -38 -8 -16 -6 -14 34 33 14 15 22
27 19 27 -2 0 -14 -10 -25 -22z"/>
<path d="M2469 6763 c-13 -16 -12 -17 4 -4 16 13 21 21 13 21 -2 0 -10 -8 -17
-17z"/>
<path d="M3839 6533 c-13 -16 -12 -17 4 -4 9 7 17 15 17 17 0 8 -8 3 -21 -13z"/>
<path d="M3783 6493 c4 -3 1 -13 -6 -22 -11 -14 -10 -14 5 -2 16 12 16 31 1
31 -4 0 -3 -3 0 -7z"/>
<path d="M4294 3937 c-104 -77 -188 -208 -224 -351 -32 -127 -22 -131 19 -6
50 150 97 227 194 323 44 42 77 77 75 77 -3 0 -32 -19 -64 -43z"/>
<path d="M4562 1968 c-7 -7 -12 -27 -12 -45 0 -107 -98 -219 -248 -285 -37
-16 -54 -27 -39 -23 143 30 305 182 323 302 7 48 -4 71 -24 51z"/>
<path d="M3796 1701 c-8 -13 51 -60 103 -84 25 -11 73 -21 110 -23 65 -3 65
-3 15 5 -63 10 -138 43 -186 81 -20 17 -39 26 -42 21z"/>
</g>
</svg>
